<svg xmlns="http://www.w3.org/2000/svg" viewBox="0 0 512 512">
  <defs>
    <linearGradient id="bg" x1="0" y1="0" x2="1" y2="1">
      <stop stop-color="#17264d"/>
      <stop offset="1" stop-color="#07101f"/>
    </linearGradient>
    <linearGradient id="kart" x1="0" y1="0" x2="1" y2="1">
      <stop stop-color="#59e39f"/>
      <stop offset="1" stop-color="#4cc9f0"/>
    </linearGradient>
  </defs>
  <rect width="512" height="512" rx="116" fill="url(#bg)"/>
  <path d="M86 355c36-88 82-135 170-135s134 47 170 135" fill="none" stroke="#f7fbff" stroke-width="34" stroke-linecap="round" opacity=".22"/>
  <path d="M118 334h276l-35-102c-9-27-34-45-62-45h-82c-29 0-54 18-63 45z" fill="url(#kart)"/>
  <path d="M183 228h146l-19-42c-7-16-23-26-40-26h-28c-18 0-34 10-41 26z" fill="#7de4ff" opacity=".88"/>
  <circle cx="170" cy="349" r="47" fill="#0b1020" stroke="#aab4c1" stroke-width="15"/>
  <circle cx="342" cy="349" r="47" fill="#0b1020" stroke="#aab4c1" stroke-width="15"/>
  <path d="M231 268h50" stroke="#fff" stroke-width="20" stroke-linecap="round" opacity=".52"/>
  <path d="M145 412h222" stroke="#ffd166" stroke-width="20" stroke-linecap="round"/>
</svg>
